<svg width="24" height="24" viewBox="0 0 24 24" fill="none" xmlns="http://www.w3.org/2000/svg">
<rect width="24" height="24" fill="white" fill-opacity="0.01" style="mix-blend-mode:multiply"/>
<path fill-rule="evenodd" clip-rule="evenodd" d="M13.7398 1.53C14.0917 1.52326 14.4353 1.64033 14.7095 1.86105C14.9837 2.08181 15.1712 2.39271 15.2398 2.73801L15.6226 4.62766C15.9622 4.79314 16.2904 4.98108 16.605 5.19016L18.4273 4.57492C18.5821 4.52401 18.7447 4.49848 18.9077 4.49973C19.1707 4.50004 19.4291 4.57027 19.6567 4.70187C19.8842 4.83342 20.0731 5.02221 20.2046 5.24973L21.9751 8.24973C22.1608 8.55092 22.2343 8.90855 22.1821 9.25852C22.13 9.60845 21.9554 9.92887 21.69 10.1628L20.2495 11.4226V12.57L21.6675 13.8679C21.929 14.0973 22.1026 14.4103 22.1587 14.7536C22.2148 15.0969 22.15 15.449 21.9751 15.7497L20.2651 18.7497C20.1336 18.9775 19.9441 19.1669 19.7163 19.2986C19.4886 19.4301 19.2303 19.4995 18.9673 19.4997C18.8045 19.501 18.6425 19.4763 18.4878 19.4255L16.6724 18.8103C16.3552 19.0194 16.0241 19.2074 15.6821 19.3728L15.3003 21.2624C15.2317 21.6077 15.0433 21.9176 14.7691 22.1384C14.4949 22.3591 14.1522 22.4771 13.8003 22.4704H10.2603C9.90829 22.4772 9.56477 22.3592 9.29054 22.1384C9.01645 21.9177 8.82883 21.6076 8.76026 21.2624L8.37745 19.3728C8.03787 19.2073 7.70965 19.0193 7.39503 18.8103L5.57276 19.4255C5.4179 19.4764 5.25531 19.501 5.0923 19.4997C4.82932 19.4994 4.57095 19.4302 4.34327 19.2986C4.1156 19.1669 3.92691 18.9775 3.79542 18.7497L2.02491 15.7497C1.84205 15.4462 1.77249 15.0879 1.82862 14.738C1.88492 14.3879 2.06349 14.0686 2.33253 13.8376L3.74952 12.5779V11.4304L2.33253 10.1325C2.07096 9.90321 1.89748 9.59009 1.84132 9.2468C1.78522 8.90337 1.84985 8.55047 2.02491 8.24973L3.79542 5.24973C3.92688 5.02221 4.11581 4.83342 4.34327 4.70187C4.57095 4.57027 4.82932 4.50003 5.0923 4.49973C5.25367 4.48875 5.41624 4.50387 5.57276 4.54465L7.35792 5.19016C7.67498 4.98114 8.00532 4.79303 8.34718 4.62766L8.72999 2.73801C8.79857 2.39275 8.98609 2.0818 9.26026 1.86105C9.53449 1.6403 9.87802 1.52326 10.23 1.53H13.7398ZM13.7222 7.8425C12.9 7.50196 11.9954 7.41312 11.1226 7.58664C10.2497 7.76027 9.44722 8.18875 8.81788 8.81809C8.18867 9.44733 7.76011 10.249 7.58644 11.1218C7.4128 11.9947 7.5017 12.9001 7.8423 13.7224C8.18287 14.5445 8.75962 15.2475 9.49952 15.7419C10.2394 16.2363 11.1097 16.4996 11.9995 16.4997C12.5921 16.5057 13.1804 16.3936 13.729 16.1696C14.2777 15.9456 14.7767 15.6141 15.1958 15.195C15.6147 14.7761 15.9455 14.2777 16.1694 13.7292C16.3935 13.1805 16.5055 12.5923 16.4995 11.9997C16.4995 11.1098 16.2361 10.2397 15.7417 9.49973C15.2473 8.75979 14.5444 8.18307 13.7222 7.8425Z" fill="#161616"/>
</svg>
