<svg width="44" height="44" viewBox="0 0 44 44" fill="none" xmlns="http://www.w3.org/2000/svg">
<g clip-path="url(#clip0_3893_7994)">
<circle cx="22" cy="22" r="22" fill="#E1E9FF"/>
<path d="M27.25 25C26.6886 25.0029 26.135 25.1317 25.6301 25.377C25.1251 25.6224 24.6817 25.9779 24.3325 26.4175L18.85 22.99C19.0498 22.3452 19.0498 21.6549 18.85 21.01L24.3325 17.5825C24.889 18.2716 25.6714 18.7414 26.5411 18.9088C27.4108 19.0763 28.3117 18.9305 29.0842 18.4972C29.8567 18.064 30.4509 17.3714 30.7616 16.542C31.0723 15.7126 31.0794 14.8 30.7817 13.9659C30.484 13.1318 29.9007 12.4299 29.135 11.9847C28.3694 11.5395 27.4709 11.3796 26.5987 11.5334C25.7265 11.6872 24.9368 12.1448 24.3697 12.8251C23.8025 13.5053 23.4944 14.3644 23.5 15.25C23.5036 15.5854 23.554 15.9187 23.65 16.24L18.1675 19.6675C17.6835 19.0582 17.0219 18.6146 16.2745 18.3981C15.527 18.1816 14.7308 18.203 13.996 18.4593C13.2613 18.7156 12.6245 19.1941 12.1739 19.8286C11.7233 20.463 11.4812 21.2219 11.4812 22C11.4812 22.7782 11.7233 23.5371 12.1739 24.1715C12.6245 24.8059 13.2613 25.2845 13.996 25.5408C14.7308 25.7971 15.527 25.8185 16.2745 25.602C17.0219 25.3855 17.6835 24.9418 18.1675 24.3325L23.65 27.76C23.554 28.0814 23.5036 28.4146 23.5 28.75C23.5 29.4917 23.7199 30.2167 24.132 30.8334C24.5441 31.4501 25.1297 31.9307 25.815 32.2146C26.5002 32.4984 27.2542 32.5727 27.9816 32.428C28.709 32.2833 29.3772 31.9261 29.9017 31.4017C30.4261 30.8772 30.7833 30.209 30.928 29.4816C31.0727 28.7542 30.9984 28.0002 30.7146 27.315C30.4307 26.6297 29.9501 26.0441 29.3334 25.632C28.7167 25.22 27.9917 25 27.25 25ZM27.25 13C27.695 13 28.13 13.132 28.5 13.3792C28.8701 13.6265 29.1584 13.9779 29.3287 14.389C29.499 14.8001 29.5436 15.2525 29.4568 15.689C29.37 16.1254 29.1557 16.5264 28.841 16.841C28.5263 17.1557 28.1254 17.37 27.689 17.4568C27.2525 17.5436 26.8001 17.4991 26.389 17.3288C25.9778 17.1585 25.6264 16.8701 25.3792 16.5001C25.132 16.1301 25 15.695 25 15.25C25 14.6533 25.2371 14.081 25.659 13.659C26.081 13.2371 26.6533 13 27.25 13ZM15.25 24.25C14.805 24.25 14.37 24.1181 14 23.8708C13.63 23.6236 13.3416 23.2722 13.1713 22.8611C13.001 22.4499 12.9564 21.9975 13.0432 21.5611C13.1301 21.1246 13.3444 20.7237 13.659 20.409C13.9737 20.0944 14.3746 19.8801 14.8111 19.7933C15.2475 19.7064 15.6999 19.751 16.1111 19.9213C16.5222 20.0916 16.8736 20.38 17.1208 20.75C17.3681 21.12 17.5 21.555 17.5 22C17.5 22.5968 17.263 23.1691 16.841 23.591C16.4191 24.013 15.8468 24.25 15.25 24.25ZM27.25 31C26.805 31 26.37 30.8681 26 30.6208C25.63 30.3736 25.3416 30.0222 25.1713 29.6111C25.001 29.1999 24.9564 28.7475 25.0432 28.3111C25.1301 27.8746 25.3444 27.4737 25.659 27.159C25.9737 26.8444 26.3746 26.6301 26.8111 26.5433C27.2475 26.4564 27.6999 26.501 28.1111 26.6713C28.5222 26.8416 28.8736 27.13 29.1208 27.5C29.3681 27.87 29.5 28.305 29.5 28.75C29.5 29.3468 29.263 29.9191 28.841 30.341C28.4191 30.763 27.8468 31 27.25 31Z" fill="#3265FF"/>
</g>
<defs>
<clipPath id="clip0_3893_7994">
<rect width="44" height="44" rx="22" fill="white"/>
</clipPath>
</defs>
</svg>
