<svg width="44" height="44" viewBox="0 0 44 44" fill="none" xmlns="http://www.w3.org/2000/svg">
<g clip-path="url(#clip0_4475_9518)">
<circle cx="22" cy="22" r="22" fill="#494949"/>
<rect width="24" height="24" transform="translate(10 10)" fill="white" fill-opacity="0.01" style="mix-blend-mode:multiply"/>
<path d="M29.5 28V31H14.5V28H13V31C13 31.3978 13.158 31.7794 13.4393 32.0607C13.7206 32.342 14.1022 32.5 14.5 32.5H29.5C29.8978 32.5 30.2794 32.342 30.5607 32.0607C30.842 31.7794 31 31.3978 31 31V28H29.5Z" fill="#84A3FF"/>
<path d="M29.5 20.5L28.4425 19.4425L22.75 25.1275V11.5H21.25V25.1275L15.5575 19.4425L14.5 20.5L22 28L29.5 20.5Z" fill="#84A3FF"/>
</g>
<defs>
<clipPath id="clip0_4475_9518">
<rect width="44" height="44" rx="22" fill="white"/>
</clipPath>
</defs>
</svg>
