<svg width="200" height="200" viewBox="0 0 200 200" fill="none" xmlns="http://www.w3.org/2000/svg">
<path d="M178.615 21.6484C180.203 65.8167 165.787 160.424 95.4265 185.507L94.6042 185.21C24.9527 159.686 10.6557 65.6443 12.2371 21.6484L95.4265 0L178.615 21.6484Z" fill="#7094FF"/>
<path d="M73.3377 108.907H118.128V97.7092C118.123 93.553 116.47 89.5684 113.531 86.6295C110.592 83.6906 106.608 82.0374 102.451 82.0325H89.0144C84.8581 82.0374 80.8735 83.6906 77.9347 86.6295C74.9958 89.5684 73.3426 93.553 73.3377 97.7092V108.907Z" fill="white"/>
<path d="M80.0563 61.8768C80.0563 64.9774 80.9757 68.0083 82.6983 70.5863C84.4208 73.1643 86.8692 75.1736 89.7337 76.3602C92.5983 77.5467 95.7503 77.8572 98.7913 77.2523C101.832 76.6474 104.626 75.1543 106.818 72.9619C109.01 70.7695 110.503 67.9762 111.108 64.9352C111.713 61.8942 111.403 58.7422 110.216 55.8776C109.03 53.0131 107.02 50.5648 104.442 48.8422C101.864 47.1196 98.8335 46.2002 95.7329 46.2002C91.5752 46.2002 87.5878 47.8518 84.6479 50.7918C81.7079 53.7317 80.0563 57.7191 80.0563 61.8768Z" fill="white"/>
<circle cx="149.481" cy="148.182" r="38.8184" fill="#3265FF"/>
<path d="M161.425 144.449H158.439V135.491C158.439 133.115 157.496 130.836 155.816 129.156C154.136 127.477 151.857 126.533 149.481 126.533C147.106 126.533 144.827 127.477 143.147 129.156C141.467 130.836 140.523 133.115 140.523 135.491V144.449H137.537C136.745 144.449 135.986 144.763 135.426 145.323C134.866 145.883 134.551 146.643 134.551 147.435V165.351C134.551 166.143 134.866 166.903 135.426 167.463C135.986 168.023 136.745 168.337 137.537 168.337H161.425C162.217 168.337 162.977 168.023 163.537 167.463C164.097 166.903 164.411 166.143 164.411 165.351V147.435C164.411 146.643 164.097 145.883 163.537 145.323C162.977 144.763 162.217 144.449 161.425 144.449ZM143.509 135.491C143.509 133.907 144.138 132.388 145.258 131.268C146.378 130.148 147.897 129.519 149.481 129.519C151.065 129.519 152.584 130.148 153.704 131.268C154.824 132.388 155.453 133.907 155.453 135.491V144.449H143.509V135.491Z" fill="white"/>
</svg>
