<svg width="200" height="200" viewBox="0 0 200 200" fill="none" xmlns="http://www.w3.org/2000/svg">
<g clip-path="url(#clip0_3005_6208)">
<path d="M59.8678 200C58.9763 200 58.1924 199.41 57.9458 198.553L48.7349 166.553C48.3669 165.275 49.3265 164 50.6569 164L140.198 164C141.091 164 141.876 164.592 142.121 165.45L151.271 197.45C151.636 198.728 150.677 200 149.348 200L59.8678 200Z" fill="#3265FF"/>
<path d="M63.7694 197C63.3216 197 62.9283 196.702 62.8069 196.271L54.358 166.271C54.1783 165.633 54.6577 165 55.3205 165L136.289 165C136.738 165 137.131 165.299 137.252 165.731L145.645 195.731C145.823 196.368 145.344 197 144.682 197L63.7694 197Z" fill="#CDD9FF"/>
<path d="M189 54L181.355 62.7197C186.991 73.3782 190.185 85.5265 190.185 98.4219C190.185 127.529 173.928 152.837 150 165.768C163.529 154.861 172.185 138.153 172.185 119.422C172.185 106.763 168.228 95.0297 161.489 85.3848L153.5 94.5L157.5 50L189 54Z" fill="#7094FF"/>
<path d="M11.1846 154L18.8291 145.28C13.194 134.622 10 122.473 10 109.578C10 80.4713 26.2565 55.1626 50.1846 42.2324C36.6557 53.1391 28 69.8474 28 88.5781C28 101.237 31.9561 112.97 38.6953 122.615L46.6846 113.5L42.6846 158L11.1846 154Z" fill="#7094FF"/>
<path d="M104.5 0C93.5541 0 84.1589 6.63674 80.1172 16.1055C79.4209 16.0358 78.7146 16 78 16C66.402 16 57 25.402 57 37C57 48.598 66.402 58 78 58H133C142.941 58 151 49.9411 151 40C151 30.0589 142.941 22 133 22C132.201 22 131.415 22.0525 130.644 22.1533C128.57 9.5858 117.655 0 104.5 0Z" fill="#3265FF"/>
<path d="M104.215 48C105.855 48 107.185 46.6568 107.185 45C107.185 43.3431 105.855 42 104.215 42C102.575 42 101.245 43.3431 101.245 45C101.245 46.6568 102.575 48 104.215 48Z" fill="white"/>
<path d="M96.004 36.35L98.1029 38.4697C99.7483 36.8866 101.933 36.0025 104.205 35.9999C106.477 35.9973 108.664 36.8765 110.312 38.4557L112.411 36.3353C110.206 34.1927 107.264 32.9971 104.205 32.9999C101.145 33.0027 98.2054 34.2033 96.004 36.35Z" fill="white"/>
<path d="M89.7069 29.9889L91.8058 32.1092C95.1198 28.8362 99.5695 27.0025 104.204 26.9997C108.839 26.9969 113.29 28.8253 116.608 32.0942L118.707 29.9742C114.833 26.1421 109.626 23.9972 104.204 24C98.7816 24.0028 93.5772 26.1528 89.7069 29.9889Z" fill="white"/>
</g>
<defs>
<clipPath id="clip0_3005_6208">
<rect width="200" height="200" fill="white"/>
</clipPath>
</defs>
</svg>
