<svg width="25" height="24" viewBox="0 0 25 24" fill="none" xmlns="http://www.w3.org/2000/svg">
<rect width="24" height="24" transform="translate(0.5)" fill="white" fill-opacity="0.01" style="mix-blend-mode:multiply"/>
<path d="M14 21C15.78 21 17.5201 20.4722 19.0001 19.4832C20.4802 18.4943 21.6337 17.0887 22.3149 15.4442C22.9961 13.7996 23.1743 11.99 22.8271 10.2442C22.4798 8.49836 21.6226 6.89472 20.364 5.63604C19.1053 4.37737 17.5016 3.5202 15.7558 3.17294C14.01 2.82567 12.2004 3.0039 10.5559 3.68509C8.91131 4.36628 7.50571 5.51983 6.51677 6.99987C5.52784 8.47991 5 10.22 5 12V16.65L2.3 13.95L1.25 15L5.75 19.5L10.25 15L9.2 13.95L6.5 16.65V12C6.5 10.5166 6.93987 9.0666 7.76398 7.83323C8.58809 6.59986 9.75943 5.63856 11.1299 5.07091C12.5003 4.50325 14.0083 4.35473 15.4632 4.64411C16.918 4.9335 18.2544 5.64781 19.3033 6.6967C20.3522 7.7456 21.0665 9.08197 21.3559 10.5368C21.6453 11.9917 21.4968 13.4997 20.9291 14.8701C20.3614 16.2406 19.4001 17.4119 18.1668 18.236C16.9334 19.0601 15.4834 19.5 14 19.5V21Z" fill="#161616"/>
</svg>
