<svg width="200" height="200" viewBox="0 0 200 200" fill="none" xmlns="http://www.w3.org/2000/svg">
<path d="M14.7466 38.7969H156.278L173.969 165.954H32.438L14.7466 38.7969Z" fill="#CDD9FF"/>
<path d="M60.6337 78.0498L40.178 158.767H167.888L116.472 53.7241L92.6994 103.481L60.6337 78.0498Z" fill="#3265FF"/>
<path d="M128.396 20L150.51 179.223" stroke="#7094FF" stroke-width="1.10571" stroke-dasharray="4.42 4.42"/>
<path d="M76.4018 107.195C77.2174 106.643 78.8495 107.631 80.0466 109.402C81.2436 111.173 81.5521 113.055 80.7365 113.606L80.737 113.607L6.15339 164.032L1.81867 157.621L76.3869 107.206C76.392 107.202 76.3966 107.198 76.4018 107.195Z" fill="#7094FF"/>
<ellipse cx="3.99951" cy="160.817" rx="2.21143" ry="3.87" transform="rotate(-34.0624 3.99951 160.817)" fill="#517CFF"/>
<path d="M76.1434 107.375C77.1694 106.806 78.8862 107.687 80.0461 109.402C81.2058 111.118 81.3829 113.038 80.4727 113.778L80.3821 113.847L66.6418 123.136L66.6413 123.136C67.653 122.452 67.5035 120.462 66.3066 118.691C65.1095 116.921 63.3184 116.04 62.3066 116.724L76.0468 107.434L76.1434 107.375Z" fill="white"/>
<path d="M141.94 121.476L161.695 97.6113L166.651 102.021L148.185 121.112L141.94 121.476Z" fill="white"/>
<path d="M197.795 72.0109L159.392 111.843L159.274 111.966C158.02 113.197 155.65 112.954 153.882 111.381C152.058 109.757 151.566 107.331 152.783 105.963L187.882 63.1907L197.795 72.0109Z" fill="#3265FF"/>
<ellipse cx="192.838" cy="67.6004" rx="3.31714" ry="6.63428" transform="rotate(-48.3376 192.838 67.6004)" fill="#7094FF"/>
<circle cx="48.3684" cy="60.2555" r="13.8214" transform="rotate(-4.32616 48.3684 60.2555)" fill="#3265FF"/>
</svg>
