<svg width="40" height="40" viewBox="0 0 40 40" fill="none" xmlns="http://www.w3.org/2000/svg">
<path d="M20 2.5C16.3546 2.50443 12.8599 3.95451 10.2822 6.53218C7.70453 9.10984 6.25445 12.6046 6.25001 16.25C6.24571 19.2291 7.21894 22.1273 9.02039 24.5C9.02039 24.5 9.39539 24.9931 9.45564 25.0646L20 37.5L30.5488 25.0592C30.6043 24.9926 30.9796 24.4995 30.9796 24.4995L30.9815 24.4965C32.7819 22.1247 33.7545 19.2277 33.75 16.25C33.7456 12.6046 32.2955 9.10984 29.7178 6.53218C27.1402 3.95451 23.6454 2.50443 20 2.5ZM20 21.25C19.0111 21.25 18.0444 20.9568 17.2222 20.4073C16.3999 19.8579 15.7591 19.077 15.3806 18.1634C15.0022 17.2498 14.9032 16.2445 15.0961 15.2745C15.289 14.3046 15.7652 13.4137 16.4645 12.7145C17.1637 12.0152 18.0547 11.539 19.0246 11.3461C19.9945 11.1531 20.9998 11.2522 21.9134 11.6306C22.8271 12.009 23.608 12.6499 24.1574 13.4721C24.7068 14.2944 25 15.2611 25 16.25C24.9985 17.5756 24.4713 18.8465 23.5339 19.7839C22.5965 20.7212 21.3256 21.2485 20 21.25Z" fill="#3265FF"/>
</svg>
