<svg width="160" height="160" viewBox="0 0 160 160" fill="none" xmlns="http://www.w3.org/2000/svg">
<rect width="160" height="160" fill="#EAEAEA"/>
<rect width="53.7533" height="53.7533" transform="translate(53.1234 53.1233)" fill="white" fill-opacity="0.01" style="mix-blend-mode:multiply"/>
<path d="M85.0394 76.6404C86.0361 76.6404 87.0104 76.3449 87.8391 75.7911C88.6678 75.2374 89.3137 74.4504 89.6952 73.5295C90.0766 72.6087 90.1764 71.5955 89.9819 70.6179C89.7875 69.6404 89.3075 68.7425 88.6028 68.0377C87.898 67.3329 87.0001 66.853 86.0225 66.6585C85.045 66.4641 84.0317 66.5639 83.1109 66.9453C82.1901 67.3267 81.403 67.9726 80.8493 68.8013C80.2956 69.6301 80 70.6044 80 71.6011C80 72.9376 80.5309 74.2194 81.476 75.1644C82.4211 76.1095 83.7029 76.6404 85.0394 76.6404ZM85.0394 69.9213C85.3716 69.9213 85.6964 70.0198 85.9726 70.2044C86.2489 70.3889 86.4642 70.6513 86.5913 70.9582C86.7184 71.2652 86.7517 71.6029 86.6869 71.9288C86.6221 72.2546 86.4621 72.5539 86.2272 72.7889C85.9922 73.0238 85.6929 73.1838 85.3671 73.2486C85.0412 73.3134 84.7035 73.2801 84.3966 73.153C84.0896 73.0258 83.8273 72.8105 83.6427 72.5343C83.4581 72.2581 83.3596 71.9333 83.3596 71.6011C83.3596 71.1556 83.5366 70.7283 83.8516 70.4133C84.1666 70.0982 84.5939 69.9213 85.0394 69.9213Z" fill="#C2C2C2"/>
<path d="M96.7979 59.8425H63.2021C62.3111 59.8425 61.4566 60.1965 60.8265 60.8265C60.1965 61.4566 59.8425 62.3111 59.8425 63.2021V96.7979C59.8425 97.6889 60.1965 98.5434 60.8265 99.1735C61.4566 99.8035 62.3111 100.157 63.2021 100.157H96.7979C97.6889 100.157 98.5434 99.8035 99.1735 99.1735C99.8035 98.5434 100.157 97.6889 100.157 96.7979V63.2021C100.157 62.3111 99.8035 61.4566 99.1735 60.8265C98.5434 60.1965 97.6889 59.8425 96.7979 59.8425ZM96.7979 96.7979H63.2021V86.7192L71.6011 78.3202L80.9911 87.7102C81.6205 88.336 82.472 88.6872 83.3596 88.6872C84.2471 88.6872 85.0986 88.336 85.7281 87.7102L88.399 85.0394L96.7979 93.4383V96.7979ZM96.7979 88.6845L90.7675 82.6541C90.138 82.0284 89.2865 81.6771 88.399 81.6771C87.5114 81.6771 86.6599 82.0284 86.0305 82.6541L83.3596 85.3249L73.9696 75.9349C73.3401 75.3092 72.4886 74.958 71.6011 74.958C70.7135 74.958 69.862 75.3092 69.2326 75.9349L63.2021 81.9654V63.2021H96.7979V88.6845Z" fill="#C2C2C2"/>
</svg>
