<svg width="200" height="200" viewBox="0 0 200 200" fill="none" xmlns="http://www.w3.org/2000/svg">
<g clip-path="url(#clip0_3005_4117)">
<path d="M26.6914 200.157H120.223L114 173L44 175L25.7657 73H1L26.6914 200.157Z" fill="#7094FF"/>
<path d="M22 43H115.531L141.223 170.157H47.6914L22 43Z" fill="#CDD9FF"/>
<path d="M149.785 143H68.0586L67.0469 138H148.773L149.785 143Z" fill="#3265FF"/>
<path d="M123.154 130H65.4277L64.416 125H122.143L123.154 130Z" fill="#3265FF"/>
<path d="M144.523 117H62.7969L61.7852 112H143.512L144.523 117Z" fill="#3265FF"/>
<path d="M127.893 104H60.166L59.1543 99H126.881L127.893 104Z" fill="#3265FF"/>
<path d="M134.262 91H57.5352L56.5234 86H133.25L134.262 91Z" fill="#3265FF"/>
<path d="M136.631 78H54.9043L53.8926 73H135.619L136.631 78Z" fill="#3265FF"/>
<path d="M118 65H52.2734L51.2617 60H116.988L118 65Z" fill="#3265FF"/>
<path d="M131.369 52H49.6426L48.6309 47H130.357L131.369 52Z" fill="#3265FF"/>
<path d="M128.738 39H47.0117L46 34H127.727L128.738 39Z" fill="#3265FF"/>
<path d="M143.549 63.4907L135.544 55.9472L131.639 67.382L132.367 68.0678L143.549 63.4907Z" fill="#7094FF"/>
<path d="M189.496 14.7269L143.549 63.4905C142.413 64.6963 139.7 63.9852 137.489 61.9021C135.278 59.819 134.407 57.1528 135.544 55.9469L181.49 7.18341L189.496 14.7269Z" fill="#3265FF"/>
<ellipse cx="185.493" cy="10.9555" rx="3" ry="5.5" transform="rotate(-46.7034 185.493 10.9555)" fill="#7094FF"/>
</g>
<defs>
<clipPath id="clip0_3005_4117">
<rect width="200" height="200" fill="white"/>
</clipPath>
</defs>
</svg>
