<svg width="24" height="24" viewBox="0 0 24 24" fill="none" xmlns="http://www.w3.org/2000/svg">
<rect width="24" height="24" transform="translate(24) rotate(90)" fill="white" fill-opacity="0.01" style="mix-blend-mode:multiply"/>
<path d="M1.5 12.75L1.5 11.25L22.5 11.25L22.5 12.75L1.5 12.75ZM17.9961 2.32715C17.9816 2.46682 17.929 2.60011 17.8428 2.71094L12.5928 9.46094C12.5226 9.55097 12.4326 9.62369 12.3301 9.67383C12.2274 9.724 12.1143 9.75002 12 9.75C11.8857 9.75002 11.7726 9.724 11.6699 9.67383C11.5674 9.62369 11.4774 9.55096 11.4072 9.46094L6.15723 2.71094C6.07101 2.60011 6.01836 2.46682 6.00391 2.32715C5.98947 2.18744 6.01443 2.04607 6.07617 1.91992C6.13793 1.79395 6.23348 1.6875 6.35254 1.61328C6.47173 1.53898 6.60955 1.4999 6.75 1.5L17.25 1.5C17.3905 1.4999 17.5283 1.53898 17.6475 1.61328C17.7665 1.6875 17.8621 1.79395 17.9238 1.91992C17.9856 2.04607 18.0105 2.18744 17.9961 2.32715ZM17.9961 21.6729C18.0105 21.8126 17.9856 21.9539 17.9238 22.0801C17.8621 22.206 17.7665 22.3125 17.6475 22.3867C17.5283 22.461 17.3904 22.5001 17.25 22.5L6.75 22.5C6.60955 22.5001 6.47172 22.461 6.35254 22.3867C6.23348 22.3125 6.13793 22.206 6.07617 22.0801C6.01442 21.9539 5.98947 21.8126 6.00391 21.6729C6.01836 21.5332 6.07101 21.3999 6.15723 21.2891L11.4072 14.5391C11.4774 14.449 11.5674 14.3763 11.6699 14.3262C11.7726 14.276 11.8857 14.25 12 14.25C12.1143 14.25 12.2274 14.276 12.3301 14.3262C12.4326 14.3763 12.5226 14.449 12.5928 14.5391L17.8428 21.2891C17.929 21.3999 17.9816 21.5332 17.9961 21.6729ZM8.2832 3L12 7.77832L15.7168 3L8.2832 3ZM12 16.2217L8.2832 21L15.7168 21L12 16.2217Z" fill="#161616"/>
</svg>
