<svg width="151" height="32" viewBox="0 0 151 32" fill="none" xmlns="http://www.w3.org/2000/svg">
<path d="M22.3396 7.00197H12.3368C9.82194 7.00197 8.56438 7.00185 7.78312 7.78312C7.00185 8.56438 7.00197 9.82194 7.00197 12.3368V22.3396H0V8.00225C1.28896e-07 3.58273 3.58273 1.28888e-07 8.00225 0H22.3396V7.00197Z" fill="#3265FF"/>
<path d="M9.66038 24.998L19.6632 24.998C22.1781 24.998 23.4356 24.9982 24.2169 24.2169C24.9982 23.4356 24.998 22.1781 24.998 19.6632L24.998 9.66038L32 9.66038L32 23.9977C32 28.4173 28.4173 32 23.9977 32L9.66038 32L9.66038 24.998Z" fill="#1A1A1A"/>
<path d="M150.421 28.5868H144.573V9.79008H150.421V28.5868Z" fill="#1A1A1A"/>
<path d="M124.738 4.56879H134.137C136.956 4.56879 138.975 5.31718 140.193 6.81395C141.412 8.27591 142.021 10.173 142.021 12.5052C142.021 14.8025 141.412 16.6996 140.193 18.1964C138.975 19.6583 136.956 20.3893 134.137 20.3893H130.638V28.5868H124.738V4.56879ZM130.638 18.2486H133.04C135.129 18.2486 136.173 16.3341 136.173 12.5052C136.173 8.6414 135.129 6.70952 133.04 6.70952H130.638V18.2486Z" fill="#1A1A1A"/>
<path d="M114.282 26.3939C112.82 28.1691 110.871 29.0567 108.435 29.0567C106.799 29.0567 105.476 28.5868 104.466 27.647C103.492 26.6723 103.004 25.367 103.004 23.731C103.004 22.095 103.579 20.8593 104.727 20.0239C105.876 19.1537 107.825 18.4749 110.575 17.9876L113.812 17.361V15.4813C113.812 13.2884 113.029 12.1919 111.463 12.1919C109.722 12.1919 108.783 13.6017 108.643 16.4212L103.84 15.8468C104.049 13.6191 104.727 11.9831 105.876 10.9388C107.025 9.85975 108.939 9.32021 111.62 9.32021C116.945 9.32021 119.608 11.4958 119.608 15.8468V28.5868H115.744L114.282 26.3939ZM108.173 23.5744C108.173 25.2104 109.061 26.0284 110.836 26.0284C111.776 26.0284 112.768 25.4714 113.812 24.3576V19.7106L111.463 20.1805C109.27 20.6678 108.173 21.7991 108.173 23.5744Z" fill="#1A1A1A"/>
<path d="M101.027 25.2974L101.81 27.908C100.383 28.6738 98.7817 29.0567 97.0065 29.0567C95.266 29.0567 93.9259 28.5868 92.9861 27.647C92.1507 26.8116 91.733 25.2278 91.733 22.8956V12.7663H88.9135V9.79011H91.733V7.23167L97.5808 5.24757V9.79011H101.131V12.7663H97.5808V24.0443C97.5808 25.2626 98.0333 25.8717 98.9384 25.8717C99.4953 25.8717 100.191 25.6803 101.027 25.2974Z" fill="#1A1A1A"/>
<path d="M86.9773 19.9717H75.8559C75.8559 22.3387 76.117 23.9747 76.6391 24.8797C77.1613 25.7499 77.9793 26.185 79.0932 26.185C80.9728 26.185 81.9127 25.1582 81.9127 23.1044L86.7163 23.2089C86.5422 25.0189 85.8634 26.4461 84.6799 27.4903C83.4965 28.5346 81.4253 29.0567 78.4666 29.0567C75.5427 29.0567 73.4019 28.2387 72.0444 26.6027C70.7217 24.9667 70.0603 22.4953 70.0603 19.1885C70.0603 12.6096 72.9146 9.32021 78.6232 9.32021C84.1926 9.32021 86.9773 12.6618 86.9773 19.3451V19.9717ZM81.3383 17.1C81.2687 15.3943 81.025 14.1586 80.6073 13.3928C80.2244 12.5922 79.5805 12.1919 78.6755 12.1919C77.8052 12.1919 77.1613 12.54 76.7436 13.2362C76.3607 13.8976 76.0996 15.1855 75.9604 17.1H81.3383Z" fill="#1A1A1A"/>
<path d="M60.4277 28.5868L60.0622 9.32018L55.1019 28.5868H49.9851L44.9726 8.5892L44.6593 28.5868H41.0566L41.7354 4.56879H49.2019L53.3789 21.6947L57.7126 4.56879H65.649L66.3277 28.5868H60.4277Z" fill="#1A1A1A"/>
<path d="M147.623 7.82083C148.562 7.82083 149.35 7.52121 149.987 6.92198C150.625 6.28945 150.943 5.50712 150.943 4.57498C150.943 3.60955 150.625 2.81057 149.987 2.17804C149.35 1.51223 148.562 1.17932 147.623 1.17932C146.683 1.17932 145.895 1.51223 145.258 2.17804C144.621 2.81057 144.302 3.5929 144.302 4.52504C144.302 5.4239 144.621 6.20623 145.258 6.87204C145.929 7.50457 146.717 7.82083 147.623 7.82083Z" fill="#3265FF"/>
</svg>
