<svg width="20" height="20" viewBox="0 0 20 20" fill="none" xmlns="http://www.w3.org/2000/svg">
<rect width="20" height="20" rx="4" fill="black" fill-opacity="0.3"/>
<rect width="16" height="16" transform="translate(2 2)" fill="white" fill-opacity="0.01" style="mix-blend-mode:multiply"/>
<path d="M15.388 7.39909C15.4615 7.75879 15.5 8.12738 15.5 8.5C15.5018 9.69111 15.1127 10.8501 14.3926 11.7988L14.3919 11.8001C14.3878 11.8055 14.2416 11.9972 14.2194 12.0234L10 17L8.06706 14.7201L8.77604 14.0111L10 15.4538L13.4551 11.3789C13.4771 11.3512 13.5944 11.196 13.5944 11.196C14.183 10.4205 14.5011 9.47353 14.5 8.5C14.5 8.43058 14.498 8.36135 14.4948 8.29232L15.388 7.39909Z" fill="white"/>
<path d="M17.7715 3.60221L4.70703 16.6667L4 15.9596L17.0645 2.89518L17.7715 3.60221Z" fill="white"/>
<path d="M10 3C11.4587 3 12.8579 3.57923 13.8893 4.61068C13.8968 4.61816 13.904 4.62594 13.9115 4.63346L13.2044 5.34049C13.197 5.33296 13.1898 5.3252 13.1823 5.31771C12.3384 4.4738 11.1935 4 10 4C8.80653 4 7.66162 4.4738 6.81771 5.31771C5.9738 6.16162 5.5 7.30653 5.5 8.5C5.49889 9.47402 5.81732 10.4215 6.40625 11.1973C6.40625 11.1973 6.52288 11.3517 6.54948 11.3848L6.82943 11.7155L6.12044 12.4245L5.78255 12.0254C5.75889 11.9972 5.61196 11.8052 5.60807 11.8001C4.88753 10.8511 4.49831 9.6916 4.5 8.5C4.5 7.04131 5.07923 5.64213 6.11068 4.61068C7.14212 3.57923 8.54132 3 10 3Z" fill="white"/>
<path d="M9.51237 6.04818C9.9973 5.95173 10.5002 6.00089 10.957 6.1901C11.2716 6.32044 11.5536 6.5143 11.7891 6.75586L11.0814 7.46354C11.0741 7.4559 11.0674 7.4476 11.0599 7.4401C10.7787 7.1589 10.3977 7.00044 10 7C9.70337 7 9.41332 7.08783 9.16667 7.2526C8.92002 7.41741 8.72747 7.65173 8.61393 7.92578C8.50045 8.19976 8.47086 8.50145 8.52865 8.79232C8.58652 9.08329 8.72968 9.35077 8.93945 9.56055C8.94695 9.56804 8.95525 9.57471 8.96289 9.58203L8.25586 10.2891C8.0143 10.0536 7.82044 9.77161 7.6901 9.45703C7.50089 9.00024 7.45173 8.4973 7.54818 8.01237C7.64464 7.52742 7.8828 7.08205 8.23242 6.73242C8.58205 6.38279 9.02742 6.14464 9.51237 6.04818Z" fill="white"/>
</svg>
