<svg width="24" height="24" viewBox="0 0 24 24" fill="none" xmlns="http://www.w3.org/2000/svg">
<rect width="24" height="24" fill="white" fill-opacity="0.01" style="mix-blend-mode:multiply"/>
<path d="M17.25 15C16.6886 15.0029 16.135 15.1317 15.63 15.377C15.1251 15.6224 14.6816 15.9779 14.3325 16.4175L8.84996 12.99C9.04977 12.3452 9.04977 11.6549 8.84996 11.01L14.3325 7.58253C14.8889 8.27157 15.6713 8.74141 16.541 8.90884C17.4107 9.07626 18.3116 8.93046 19.0841 8.49725C19.8566 8.06404 20.4508 7.3714 20.7615 6.54202C21.0723 5.71263 21.0794 4.80004 20.7817 3.96591C20.484 3.13177 19.9006 2.42993 19.135 1.9847C18.3693 1.53948 17.4708 1.37962 16.5986 1.53343C15.7264 1.68725 14.9368 2.14481 14.3696 2.82507C13.8025 3.50533 13.4944 4.36437 13.5 5.25003C13.5035 5.58541 13.554 5.91865 13.65 6.24003L8.16746 9.66753C7.68344 9.05822 7.02186 8.61457 6.27442 8.39808C5.52698 8.18159 4.7307 8.20298 3.99596 8.45929C3.26123 8.7156 2.62442 9.19413 2.17382 9.82856C1.72322 10.463 1.48114 11.2219 1.48114 12C1.48114 12.7782 1.72322 13.5371 2.17382 14.1715C2.62442 14.8059 3.26123 15.2845 3.99596 15.5408C4.7307 15.7971 5.52698 15.8185 6.27442 15.602C7.02186 15.3855 7.68344 14.9418 8.16746 14.3325L13.65 17.76C13.554 18.0814 13.5035 18.4146 13.5 18.75C13.5 19.4917 13.7199 20.2167 14.1319 20.8334C14.544 21.4501 15.1297 21.9307 15.8149 22.2146C16.5001 22.4984 17.2541 22.5727 17.9815 22.428C18.709 22.2833 19.3772 21.9261 19.9016 21.4017C20.4261 20.8772 20.7832 20.209 20.9279 19.4816C21.0726 18.7542 20.9983 18.0002 20.7145 17.315C20.4307 16.6297 19.95 16.0441 19.3333 15.632C18.7167 15.22 17.9916 15 17.25 15ZM17.25 3.00003C17.695 3.00003 18.13 3.13199 18.5 3.37922C18.87 3.62646 19.1584 3.97786 19.3287 4.38899C19.499 4.80013 19.5435 5.25253 19.4567 5.68898C19.3699 6.12544 19.1556 6.52635 18.8409 6.84102C18.5263 7.15569 18.1254 7.36998 17.6889 7.4568C17.2525 7.54362 16.8001 7.49906 16.3889 7.32876C15.9778 7.15846 15.6264 6.87007 15.3791 6.50006C15.1319 6.13005 15 5.69504 15 5.25003C15 4.65329 15.237 4.081 15.659 3.65904C16.0809 3.23708 16.6532 3.00003 17.25 3.00003ZM5.24996 14.25C4.80495 14.25 4.36993 14.1181 3.99992 13.8708C3.62991 13.6236 3.34152 13.2722 3.17123 12.8611C3.00093 12.4499 2.95637 11.9975 3.04319 11.5611C3.13 11.1246 3.3443 10.7237 3.65896 10.409C3.97363 10.0944 4.37454 9.88008 4.811 9.79326C5.24746 9.70645 5.69986 9.751 6.11099 9.9213C6.52213 10.0916 6.87353 10.38 7.12076 10.75C7.36799 11.12 7.49996 11.555 7.49996 12C7.49996 12.5968 7.2629 13.1691 6.84095 13.591C6.41899 14.013 5.84669 14.25 5.24996 14.25ZM17.25 21C16.8049 21 16.3699 20.8681 15.9999 20.6208C15.6299 20.3736 15.3415 20.0222 15.1712 19.6111C15.0009 19.1999 14.9564 18.7475 15.0432 18.3111C15.13 17.8746 15.3443 17.4737 15.659 17.159C15.9736 16.8444 16.3745 16.6301 16.811 16.5433C17.2475 16.4564 17.6999 16.501 18.111 16.6713C18.5221 16.8416 18.8735 17.13 19.1208 17.5C19.368 17.87 19.5 18.305 19.5 18.75C19.5 19.3468 19.2629 19.9191 18.8409 20.341C18.419 20.763 17.8467 21 17.25 21Z" fill="#161616"/>
</svg>
