<svg width="24" height="24" viewBox="0 0 24 24" fill="none" xmlns="http://www.w3.org/2000/svg">
<rect width="24" height="24" fill="white" fill-opacity="0.01" style="mix-blend-mode:multiply"/>
<path d="M12.75 22.5H11.25V1.5H12.75V22.5ZM2.32715 6.00391C2.46682 6.01836 2.60011 6.07101 2.71094 6.15723L9.46094 11.4072C9.55097 11.4774 9.62369 11.5674 9.67383 11.6699C9.724 11.7726 9.75002 11.8857 9.75 12C9.75002 12.1143 9.724 12.2274 9.67383 12.3301C9.62369 12.4326 9.55097 12.5226 9.46094 12.5928L2.71094 17.8428C2.60011 17.929 2.46682 17.9816 2.32715 17.9961C2.18744 18.0105 2.04607 17.9856 1.91992 17.9238C1.79396 17.8621 1.6875 17.7665 1.61328 17.6475C1.53898 17.5283 1.4999 17.3905 1.5 17.25V6.75C1.4999 6.60955 1.53898 6.47173 1.61328 6.35254C1.6875 6.23348 1.79395 6.13793 1.91992 6.07617C2.04607 6.01443 2.18744 5.98947 2.32715 6.00391ZM21.6729 6.00391C21.8126 5.98947 21.9539 6.01443 22.0801 6.07617C22.206 6.13793 22.3125 6.23348 22.3867 6.35254C22.461 6.47173 22.5001 6.60955 22.5 6.75V17.25C22.5001 17.3905 22.461 17.5283 22.3867 17.6475C22.3125 17.7665 22.206 17.8621 22.0801 17.9238C21.9539 17.9856 21.8126 18.0105 21.6729 17.9961C21.5332 17.9816 21.3999 17.929 21.2891 17.8428L14.5391 12.5928C14.449 12.5226 14.3763 12.4326 14.3262 12.3301C14.276 12.2274 14.25 12.1143 14.25 12C14.25 11.8857 14.276 11.7726 14.3262 11.6699C14.3763 11.5674 14.449 11.4774 14.5391 11.4072L21.2891 6.15723C21.3999 6.07101 21.5332 6.01836 21.6729 6.00391ZM3 15.7168L7.77832 12L3 8.2832V15.7168ZM16.2217 12L21 15.7168V8.2832L16.2217 12Z" fill="#161616"/>
</svg>
