<svg width="24" height="24" viewBox="0 0 24 24" fill="none" xmlns="http://www.w3.org/2000/svg">
<path fill-rule="evenodd" clip-rule="evenodd" d="M10.0156 12.7568C10.709 12.8273 11.25 13.4131 11.25 14.125V19.625L11.2432 19.7656C11.1774 20.4127 10.6627 20.9274 10.0156 20.9932L9.875 21H4.375L4.23438 20.9932C3.58726 20.9274 3.07256 20.4127 3.00684 19.7656L3 19.625V14.125C3 13.4131 3.54103 12.8273 4.23438 12.7568L4.375 12.75H9.875L10.0156 12.7568Z" fill="black"/>
<path fill-rule="evenodd" clip-rule="evenodd" d="M19.7656 12.7568C20.459 12.8273 21 13.4131 21 14.125V19.625L20.9932 19.7656C20.9274 20.4127 20.4127 20.9274 19.7656 20.9932L19.625 21H14.125L13.9844 20.9932C13.3373 20.9274 12.8226 20.4127 12.7568 19.7656L12.75 19.625V14.125C12.75 13.4131 13.291 12.8273 13.9844 12.7568L14.125 12.75H19.625L19.7656 12.7568Z" fill="black"/>
<path fill-rule="evenodd" clip-rule="evenodd" d="M10.0156 3.00684C10.709 3.07726 11.25 3.66307 11.25 4.375V9.875L11.2432 10.0156C11.1774 10.6627 10.6627 11.1774 10.0156 11.2432L9.875 11.25H4.375L4.23438 11.2432C3.58726 11.1774 3.07256 10.6627 3.00684 10.0156L3 9.875V4.375C3 3.66307 3.54103 3.07726 4.23438 3.00684L4.375 3H9.875L10.0156 3.00684Z" fill="black"/>
<path fill-rule="evenodd" clip-rule="evenodd" d="M19.7656 3.00684C20.459 3.07726 21 3.66307 21 4.375V9.875L20.9932 10.0156C20.9274 10.6627 20.4127 11.1774 19.7656 11.2432L19.625 11.25H14.125L13.9844 11.2432C13.3373 11.1774 12.8226 10.6627 12.7568 10.0156L12.75 9.875V4.375C12.75 3.66307 13.291 3.07726 13.9844 3.00684L14.125 3H19.625L19.7656 3.00684Z" fill="black"/>
</svg>
